<svg id="svg" xmlns="http://www.w3.org/2000/svg" xmlns:xlink="http://www.w3.org/1999/xlink" width="24" height="24" viewBox="0, 0, 400,367.0886075949367"><g id="svgg"><path id="path0" d="M151.899 53.969 C 151.899 54.544,131.392 112.727,106.329 183.264 C 81.266 253.802,60.759 312.110,60.759 312.840 C 60.759 313.569,67.804 313.826,76.414 313.412 L 92.069 312.658 103.561 277.848 L 115.054 243.038 166.113 243.038 L 217.171 243.038 226.318 268.987 C 231.349 283.259,236.999 299.494,238.873 305.063 L 242.282 315.190 259.475 315.190 L 276.668 315.190 320.589 189.873 C 344.745 120.949,365.185 62.506,366.010 60.000 C 367.363 55.890,365.969 55.518,351.790 56.203 L 336.071 56.962 299.081 165.068 C 278.736 224.527,261.365 271.806,260.478 270.132 C 258.061 265.570,214.939 146.651,197.867 97.468 L 182.928 54.430 167.413 53.677 C 158.880 53.262,151.899 53.394,151.899 53.969 M188.351 159.147 C 199.084 190.286,207.396 216.233,206.822 216.807 C 206.248 217.381,187.535 217.537,165.239 217.153 L 124.699 216.456 145.156 157.617 C 156.408 125.256,166.339 99.623,167.226 100.655 C 168.112 101.687,177.619 128.009,188.351 159.147 " stroke="none" fill="#000000" fill-rule="evenodd"></path></g></svg>
